<?xml version="1.0" standalone="no"?>
<!DOCTYPE svg PUBLIC "-//W3C//DTD SVG 20010904//EN"
 "http://www.w3.org/TR/2001/REC-SVG-20010904/DTD/svg10.dtd">
<svg version="1.0" xmlns="http://www.w3.org/2000/svg"
 width="1920.000000pt" height="1920.000000pt" viewBox="0 0 1920.000000 1920.000000"
 preserveAspectRatio="xMidYMid meet">

<g transform="translate(0.000000,1920.000000) scale(0.100000,-0.100000)"
fill="#000000" stroke="none">
<path d="M12457 17090 c-170 -19 -363 -97 -500 -201 -38 -28 -141 -131 -230
-228 -88 -97 -343 -376 -566 -621 -223 -245 -473 -519 -556 -610 -84 -91 -572
-626 -1085 -1190 -514 -564 -1024 -1124 -1135 -1245 -110 -121 -342 -375 -515
-565 -173 -190 -382 -419 -465 -510 -83 -91 -382 -419 -665 -730 -283 -310
-595 -652 -694 -760 -230 -252 -303 -358 -354 -520 -39 -124 -47 -174 -47
-310 0 -77 6 -159 13 -190 56 -233 126 -353 343 -590 68 -74 378 -414 689
-755 662 -727 742 -815 870 -955 53 -58 355 -388 670 -735 316 -346 687 -754
825 -905 138 -151 462 -507 720 -790 258 -283 560 -614 670 -735 111 -121 410
-449 665 -730 256 -280 535 -586 620 -679 177 -194 254 -257 395 -326 250
-123 513 -138 776 -44 602 214 847 949 494 1479 -31 47 -213 256 -436 500
-370 406 -1089 1196 -1645 1805 -147 162 -453 498 -679 745 -226 248 -570 625
-765 840 -195 214 -427 468 -515 565 -279 304 -1288 1412 -1329 1457 l-38 43
38 43 c21 23 270 296 553 607 284 311 587 644 675 740 206 226 1265 1387 1741
1910 204 223 577 633 829 910 253 278 487 534 520 570 34 36 81 88 106 115
517 567 853 937 877 965 90 103 174 275 208 421 100 436 -122 907 -520 1107
-161 81 -383 121 -558 102z"/>
</g>
</svg>
