<svg xmlns="http://www.w3.org/2000/svg" xmlns:xlink="http://www.w3.org/1999/xlink" version="1.1" x="0px" y="0px" viewBox="0 0 100 125" style="enable-background:new 0 0 100 100;" xml:space="preserve"><g><path d="M69.7,30.6c0-10.8-8.8-19.7-19.7-19.7s-19.7,8.8-19.7,19.7c0,10.9,8.8,19.7,19.7,19.7S69.7,41.5,69.7,30.6z M35.3,30.6   c0-8.1,6.6-14.7,14.7-14.7s14.7,6.6,14.7,14.7c0,8.1-6.6,14.7-14.7,14.7S35.3,38.7,35.3,30.6z"/><path d="M17.5,86.6c0,1.4,1.1,2.5,2.5,2.5s2.5-1.1,2.5-2.5c0-16.8,11.8-29.5,27.5-29.5s27.5,12.7,27.5,29.5c0,1.4,1.1,2.5,2.5,2.5   s2.5-1.1,2.5-2.5c0-19.3-14.3-34.5-32.5-34.5S17.5,67.2,17.5,86.6z"/></g><text x="0" y="115" fill="#000000" font-size="5px" font-weight="bold" font-family="'Helvetica Neue', Helvetica, Arial-Unicode, Arial, Sans-serif">Created by Genius Icons</text><text x="0" y="120" fill="#000000" font-size="5px" font-weight="bold" font-family="'Helvetica Neue', Helvetica, Arial-Unicode, Arial, Sans-serif">from the Noun Project</text></svg>